<?xml version="1.0" encoding="UTF-8" standalone="no"?>
<svg xmlns:rdf="http://www.w3.org/1999/02/22-rdf-syntax-ns#" xmlns="http://www.w3.org/2000/svg" enable-background="new 0 0 625.5 174" xml:space="preserve" viewBox="0 0 261.69434 236.53304" height="236.53" width="261.69" version="1.1" y="0px" x="0px" xmlns:cc="http://creativecommons.org/ns#" xmlns:dc="http://purl.org/dc/elements/1.1/"><metadata><rdf:RDF><cc:Work rdf:about=""><dc:format>image/svg+xml</dc:format><dc:type rdf:resource="http://purl.org/dc/dcmitype/StillImage"/><dc:title/></cc:Work></rdf:RDF></metadata><g transform="matrix(1.0066 0 0 1.0066 -.21532 59.696)"><circle cx="130.07" cy="25.305" r="22.52" stroke-width=".99341" fill="#fff"/><g transform="matrix(.53256 0 0 .53256 -6.0395 87.392)"><path stroke-width="2.4794" fill="#821f81" d="m385.19-160.41s-0.24794 0 0 0c-0.24794-0.24793-0.49587-0.24793-0.49587-0.49587 4.9587-2.7273 10.165-5.4546 15.124-8.1819v-0.24794-0.24794c-0.49588 0-1.2397-0.24794-1.7356 0-2.4794 0.24794-4.7108 0.24794-7.1902 0.49588-3.4711 0.24793-7.1902 0.49587-10.661 0.74381-2.9752 0.24794-6.1984 0.49587-9.1737 0.74381-5.2067 0.49588-10.165 0.99175-15.372 1.4876-3.7191 0.24794-7.6861 0.49588-11.405 0.74382-3.7191 0.24793-7.1902 0.49587-10.909 0.99175-2.4794 0.24793-4.9587 0.49587-7.686 0.74381-0.74382 0-1.7356 0.24794-2.4794 0.24794-1.2397 0-2.4794 0.24793-3.4711 0.24793l-8.1819 0.74382c-1.7356 0.24793-3.7191 0.24793-5.4546 0.49587 1.9835-0.24794 3.967-0.49587 5.9505-0.49587 6.4464-0.74382 12.645-1.2397 19.091-1.9835 2.2314-0.24794 4.2149-0.49588 6.4464-0.74382 1.9835-0.24793 3.967-0.99175 5.9505-1.4876 0.49587 0 0.74381-0.24794 1.2397-0.24794 0.49588 0 1.2397 0 1.7356-0.24793v-0.49588h-7.4381c0.74382 0 1.7356 0 2.4794-0.24794v-0.49587h-34.463c-3.4711 0-6.9422 0.24794-10.661 0.24794v-0.24794h10.661 1.4876c5.9505-0.24794 11.901-0.24794 18.099-0.49588v-0.49587-0.24794h-2.2314-32.48c-0.49588 0-0.99175 0-1.2397-0.24794-0.49588-0.24793-0.74381-0.49587-0.99175-1.4876l-9.6696-29.752c-1.7356-5.7026-3.7191-11.405-5.4546-17.108-1.2397-3.967-2.4794-7.6861-3.7191-11.653-0.99175-3.2232-2.2314-6.4464-3.2232-9.6696h-0.24793-0.24794c5.7026 19.587 11.157 39.174 16.86 58.761h-0.24794-0.24793c-4.9588-15.62-9.6696-31.488-14.628-47.108-0.24794 0-0.49587 0.24794-0.74381 0.24794 2.4794 10.165 5.2067 20.331 7.6861 30.496h-0.24794l-4.4629-17.108c-2.2314-8.1819-4.2149-16.116-6.4464-24.298-0.24794 0-0.49588 0.24793-0.74382 0.24793 0.24794 0.99175 0.49588 2.2314 0.74382 3.2232 0.24793 0.74381 0.24793 1.4876 0.49587 1.9835 0.74381 3.967 1.7356 7.934 2.4794 11.653 1.2397 5.7026 2.4794 11.405 3.4711 16.86-1.7356-7.934-3.7191-16.116-5.4546-24.05-0.24794-1.4876-0.24794-2.9752-0.49588-4.4629-0.49587-1.2397-1.2397-2.7273-1.4876-3.967-0.24794-0.49587-0.24794-1.2397-0.49588-1.7356-0.24794-1.2397-0.49587-2.2314-0.74381-3.4711h-0.49587-0.49588c0.74381 3.4711 1.2397 6.6943 1.9835 10.165 0.49587 2.2314 0.74381 4.4629 1.2397 6.6943h-0.24794c-1.9835-10.661-4.2149-21.571-6.1984-32.232h-0.24794-0.24794v0.24794c0 0.24793-0.24794 0.74381-0.49587 1.4876-0.74382-5.2067-1.2397-9.9175-1.9835-14.876-0.24794-1.4876-0.49588-3.2232-0.74382-4.7108-0.74381 0.24794-0.99174 0.74381-0.99174 0.99175-3.2232 11.653-6.1984 23.554-9.4216 35.207-1.9835 7.934-4.2149 15.62-6.1984 23.554-0.49587 1.4876-0.99175 3.2232-1.4876 4.7108-0.24794 0.74382-0.49588 1.2397-0.74381 1.9835v0.49588c-0.24794 0.49587-0.24794 1.2397-0.49588 1.7356-0.49587 1.9835-0.74381 3.967-1.2397 5.9505-0.99175 2.9752-1.9835 6.1984-2.7273 9.1737h-0.24793l2.2314-8.1819c0-0.49587 0.49588-0.74381 0.74381-0.99175v-0.24793c0-0.24794 0-0.49588 0.24794-0.74381 0.24794-0.74382 0.24794-1.4876 0.49588-2.2314l0.74381-3.7191c0-0.49588 0.24794-0.74381 0.24794-1.2397 0-0.24794 0-0.24794 0.24793-0.49587 0.24794-2.4794 0.74381-4.7108 0.99175-7.1902 0.24794-1.7356 0.49588-3.4711 0.74381-4.9587 0-0.49588 0.24794-0.74382 0.24794-1.2397-1.2397 1.7356-2.2314 3.4711-3.2232 5.4546-0.24794 0.49588-0.24794 0.99175-0.24794 1.4876-0.24794 0.99175-0.24794 2.2314-0.49588 3.2232-0.49587 1.2397-0.99175 2.2314-1.7356 3.4711-0.24793 0.24794-0.24793 0.74382-0.49587 0.99175-0.24794 0.49588-0.49588 0.99175-0.49588 1.2397-1.4876 4.4629-2.9752 9.1737-4.4629 13.637-2.2314 6.6943-4.4629 13.389-6.4464 20.083-0.24794 0.49588-0.24794 0.74381-0.49588 1.2397-0.49587 0.74381-1.2397 1.2397-2.7273 1.2397h-56.034c-1.7356 0-3.2232 0.24794-4.9588 0.49588v0.49587c12.645 0.24794 25.538 0.49588 38.182 0.74382h8.9257v0.24793c-2.9752 0-5.9505 0-8.9257-0.24793h-49.835v0.24793 0.24794c13.141 0.74381 26.033 1.2397 39.174 1.9835-4.9588-0.24794-10.165-0.24794-15.124-0.49587-2.4794 0-4.9588-0.24794-7.6861-0.24794-3.4711-0.24794-7.1902-0.24794-10.661-0.49588-2.4794 0-4.9588-0.24793-7.1902-0.24793-0.74381 0-1.7356 0.49587-2.4794 0.99175-0.24794 0-0.49587 0.24793-0.74381 0.24793-0.74381 0-1.7356 0-2.4794-0.24793h-1.4876c-0.74381 0-1.7356-0.24794-2.4794-0.24794-1.4876-0.24794-3.2232-0.24794-4.7108-0.24794-0.99175 0-2.2314-0.24794-3.2232-0.24794v0.24794 0.49588c7.6861 0.99174 15.62 1.9835 23.306 2.9752 4.9588 0.74382 9.9175 1.2397 15.124 1.9835v0.24794c-7.1902-0.99175-14.38-1.7356-21.571-2.7273-11.157-1.2397-22.314-2.7273-33.472-3.967 0.49588 0.99175 1.2397 1.4876 1.9835 1.9835 5.7026 3.4711 11.653 6.6943 17.356 10.165 9.4216 5.4546 18.843 10.909 28.265 16.612 0.99175 0.49588 1.9835 1.2397 2.9752 1.9835 1.7356 1.2397 3.7191 2.2314 5.4546 3.4711h0.24794c0.24794 0.24793 0.74381 0.49587 0.99175 0.74381 1.7356 0.74381 3.2232 1.7356 4.9588 2.4794-0.24794 0.24794-0.24794 0.49588-0.49588 0.74381-1.4876-0.99175-2.9752-2.2314-4.4629-3.2232-0.24794-0.24794-0.74381-0.49588-0.99175-0.49588 0 0-0.24794 0-0.24794-0.24793-0.24794 0-0.49587 0-0.74381-0.24794-1.7356-0.74381-3.4711-1.4876-5.2067-1.9835-1.2397-0.49587-2.2314-0.99175-3.4711-1.4876 0 0 0 0.24793-0.24794 0.24793 0.74382 0.74382 1.2397 1.4876 1.9835 2.2314 0.99175 0.99175 1.9835 2.2314 3.2232 3.2232v0.24793c-3.967-2.4794-7.6861-5.2067-11.653-7.6861 0 0 0 0.24794-0.24793 0.24794l-0.24794 0.24794c0.49587 0.49587 0.74381 0.99175 1.2397 1.2397 9.4216 6.6943 18.843 13.637 28.265 20.331 6.1984 4.4629 12.645 9.1737 18.843 13.637 0.74382 0.49588 0.99175 1.2397 1.2397 1.7356v0.49587c0 0.24794 0 0.49587-0.24794 0.99175-0.74381 2.4794-1.7356 4.9587-2.4794 7.4381-1.2397 3.7191-2.4794 7.1902-3.4711 10.909-3.967 12.645-8.1819 25.29-12.149 38.182 0 0.49588-0.24794 0.74381-0.24794 1.2397v0.74381h0.49587c2.2314-6.1984 4.2149-12.645 6.4464-19.091 0.24794 0 0.24794 0 0.49588 0.24794-1.2397 3.967-2.7273 7.934-3.967 11.901-1.9835 5.9505-3.967 11.901-5.9505 17.851 0 0 0.24794 0 0.24794 0.24794h0.24794c0-0.24794 0.24794-0.24794 0.24794-0.49588 0.24793-0.24794 0.24793-0.49587 0.49587-0.74381 0-0.24794 0.24794-0.24794 0.24794-0.49587 0.74381-1.9835 1.4876-4.2149 2.4794-6.1984 0.24794-0.49588 0.74381-0.99175 1.2397-1.4876 0.49587-1.9835 0.74381-4.2149 1.2397-6.1984 0.24793 0 0.49587 0 0.74381 0.24794-0.49588 1.9835-1.2397 3.967-1.7356 5.9505-0.99175 2.4794-1.9835 4.9587-2.9752 7.6861-0.74381 1.7356-1.2397 3.2232-1.9835 4.9587 0 0.24794 0 0.49587-0.24794 0.74381-0.24794 1.2397 0 2.4794-0.49587 3.4711-0.24794 0.74381-0.74381 1.7356-0.99175 2.4794-0.49588 1.2397-1.2397 2.7273-1.7356 3.967-0.49588 0.99175-0.74382 1.9835-0.99175 2.9752-0.24794 0.74381-0.49588 1.2397-0.74382 1.9835 0.24794 0 0.24794 0.24794 0.49588 0.24794 0.74381-1.2397 1.2397-2.2314 1.9835-3.4711v-0.24794l0.24794-0.24794c1.9835-4.7108 3.967-9.1737 6.1984-13.884 0.49587-0.99175 0.99175-1.7356 1.4876-2.7273 0-0.24794 0.24794-0.49588 0.24794-0.74381 0.24794-0.49588 0.49588-0.74381 0.49588-1.2397 0.99175-1.9835 1.7356-3.967 2.7273-5.9505 0.24793 0 0.24793 0.24794 0.49587 0.24794-0.99175 1.9835-1.9835 3.7191-2.9752 5.7026-0.24793 0.49588-0.24793 0.74381-0.49587 1.2397-0.24794 0.24794-0.24794 0.49588-0.49588 0.74381-0.49587 1.4876-1.2397 3.2232-1.9835 4.7108-1.7356 3.7191-3.2232 7.4381-4.9587 11.157 0 0.24794-0.24794 0.49588-0.49588 0.74381v0.24794s0 0.24794-0.24793 0.24794c0 0.49587-0.24794 0.74381-0.24794 1.2397-2.7273 5.7026-5.2067 11.157-7.934 16.86-0.24793 0.49587-0.49587 0.99175-0.49587 1.4876 0.24794 0 0.24794 0.24794 0.49587 0.24794l0.24794 0.24794c6.4464-5.7026 12.645-11.405 19.091-17.108 9.4216-8.4299 18.843-16.86 28.265-25.29 0 0 0.24793 0.24794 0.24793 0.24794l0.24794 0.24794c-0.74381 0.99175-1.4876 1.7356-1.9835 2.7273-1.2397 1.4876-2.2314 2.9752-3.7191 4.7108 0.74381-0.49588 1.2397-0.74381 1.7356-1.2397 0.24794-0.24794 0.49588-0.49588 0.99175-0.49588 0.99175-0.49587 1.7356-0.99175 2.7273-1.4876 1.4876-0.74381 2.9752-1.7356 4.4629-2.7273 0.49587-0.24794 0.74381-0.49587 1.2397-0.99175 0.74381-0.49588 1.4876-1.2397 2.2314-1.7356 0 0.24794 0.24794 0.24794 0.24794 0.49588-2.4794 1.9835-4.9588 3.967-7.6861 5.9505-3.7191 2.9752-7.6861 5.9505-11.405 8.9257 0 0 0.24794 0.24794 0.24794 0.49587 0 0 0.24793 0.24794 0.24793 0.24794 4.7108-3.4711 9.4216-6.9422 14.132-10.165 4.9588-3.7191 9.9175-7.1902 15.124-10.909 7.4381-5.4546 14.876-10.661 22.314-16.116 0.24794-0.24794 0.49588-0.24794 0.74382-0.49588h0.49587c0.24794 0 0.74381 0.24794 1.2397 0.49588 2.9752 2.2314 6.1984 4.7108 9.4216 6.9422 12.645 8.9257 25.29 17.604 38.182 26.529 0.99175 0.74381 2.2314 1.2397 3.2232 1.7356 0-0.24794 0.24793-0.24794 0.24793-0.49588-1.4876-1.2397-3.2232-2.4794-4.7108-3.7191 0-0.24794 0.24794-0.24794 0.24794-0.49588 4.4629 3.4711 8.9258 6.6943 13.389 10.165l0.49587-0.49588c-0.24793-0.49588-0.49587-0.74381-0.74381-1.2397 0.99175 0.49588 1.7356 1.2397 2.4794 1.7356 0.49588 0.24794 0.99175 0.74381 1.4876 0.99175 0.74381 0.24794 1.2397 0.49588 1.9835 0.74381 0.24793 0.24794 0.74381 0.24794 0.99175 0.49588 0.49587 0.49588 0.99175 0.74381 1.4876 1.2397 1.2397 1.2397 2.4794 2.4794 3.7191 3.4711 0.49588 0.24794 0.74381 0.49587 0.99175 0.99175 0.99175 0.99175 1.9835 2.4794 3.4711 2.4794h0.99175 0.24794c0.24794 0 0.24794 0.24794 0.49588 0.24794 1.4876 1.4876 2.9752 2.9752 4.4629 4.2149 2.2314 2.2314 4.4629 4.2149 6.4464 6.4464 0 0 0.24794 0.24794 0.49587 0.24794 0 0 0.24794 0 0.24794 0.24794h0.24794s0.24794 0 0.24794-0.24794c-0.99175-2.9752-1.9835-5.7026-3.2232-8.4299-3.2232-7.6861-6.6943-15.372-9.9175-23.058-1.7356-4.2149-3.4711-8.4299-5.2067-12.645-2.7273-6.1984-5.2067-12.397-7.934-18.595h0.24793c2.2314 4.2149 4.7108 8.1819 6.9422 12.397-0.24794-2.4794-0.49588-4.7108-0.99175-7.1902 0-0.49588-0.24794-0.99175-0.49587-1.4876-2.2314-7.1902-4.7108-14.132-6.9422-21.323-1.2397-3.7191-2.4794-7.4381-3.7191-10.909 0.99175 2.7273 1.9835 5.7026 2.9752 8.4299 0.74381 1.9835 1.2397 3.7191 1.9835 5.7026h0.24793c0.24794 0 0.24794 0 0.49588-0.24794-0.24794-0.99175-0.49588-2.2314-0.74381-3.2232v-0.24794c-2.4794-7.4381-4.9588-14.876-7.4381-22.562-0.49588-1.2397-0.24794-1.9835 0.74381-2.4794 1.4876-0.74382 2.7273-1.9835 3.967-2.9752 2.4794-1.7356 4.7108-3.4711 7.1902-5.2067 3.4711-2.4794 7.1902-5.2067 10.661-7.934 6.6943-5.2067 13.389-10.413 20.331-15.62 2.4794-1.7356 4.7108-3.7191 7.1902-5.4546 0-0.24793-0.24794-0.24793-0.24794-0.49587-0.74381 0.24794-1.2397 0.74381-1.9835 0.99175-0.49588 0.24793-0.99175 0.49587-1.2397 0.74381v-0.24794s0-0.24794-0.24794-0.24794c2.4794-1.7356 4.9588-3.4711 7.4381-5.2067l4.7108-3.2232c0-0.24793-0.24794-0.24793-0.24794-0.49587-0.74381 0.24794-1.4876 0.74381-2.2314 0.99175 0.49587-0.49588 0.99175-0.99175 1.4876-1.2397 0.24794-0.24794 0.49588-0.24794 0.49588-0.24794 0.99175-0.49587 2.2314-1.2397 2.4794-1.9835 0.24794-0.49588 0.49588-0.99175 0.74381-1.2397 0.49588-0.49588 0.99175-0.74381 1.4876-1.2397 0.49587-0.24793 0.74381-0.49587 1.2397-0.74381 1.7356-0.99175 3.4711-1.9835 5.2067-2.9752 1.2397-0.74381 2.2314-1.2397 3.4711-1.9835-2.7273 0.24794-2.4794-0.49587-1.9835-0.99175m-49.587-5.4546c-1.9835 0.24794-3.967 0.24794-5.9505 0.49588-4.9587 0.24793-9.9175 0.74381-15.124 0.99175 1.9835-0.24794 3.967-0.24794 5.9505-0.49588 5.2067-0.49587 10.165-0.99175 15.124-0.99175m-25.042-0.24794c8.4299-0.24793 17.108-0.74381 25.538-0.99174-8.4299 0.24793-17.108 0.49587-25.538 0.99174zm-142.32 2.7273c-8.9257-0.74382-18.099-1.2397-27.025-1.9835v-0.24794c8.9258 0.74381 18.099 1.4876 27.025 2.2314zm0.49588 39.422c-1.4876-0.99175-2.9752-1.9835-4.4629-2.9752 0-0.24794 0.24793-0.24794 0.24793-0.49588 1.4876 0.99175 2.9752 1.9835 4.2149 2.9752 0.24794 0.24794 0.24794 0.24794 0 0.49588m1.7356-2.9752c-2.2314-1.4876-4.4629-2.7273-6.6943-4.2149 2.4794 1.4876 4.7108 2.9752 6.6943 4.2149 0.24794 0 0 0 0 0m4.4629 0.24793c1.4876 0.99175 3.2232 1.7356 4.7108 2.7273l-0.24793 0.24793c-1.4876-0.99175-3.2232-1.7356-4.7108-2.7273l0.24793-0.24794m8.9258 12.893c-2.4794-1.7356-4.9588-3.4711-7.6861-4.9588l0.24794-0.24794c2.7273 1.4876 5.2067 3.2232 7.4381 5.2067 0.24794-0.24794 0.24794 0 0 0m-7.934 87.274s-0.24793 0 0 0c0.99175-2.7273 1.9835-5.4546 2.9752-7.934h0.24794c-1.2397 2.4794-2.2314 5.2067-3.2232 7.934m7.4381-23.802c-0.24793 0-0.24793 0-0.24793-0.24794 1.2397-3.2232 2.4794-6.1984 3.7191-9.4216-1.2397 3.2232-2.2314 6.4464-3.4711 9.6696m1.7356-11.653h-0.24793c1.7356-4.9587 3.4711-10.165 5.2067-15.124-1.7356 4.7108-3.4711 9.9175-4.9588 15.124m74.629-170.33c0.49587 4.4629 1.2397 8.9258 1.7356 13.389-0.74381-4.4629-1.4876-8.9258-1.9835-13.389h0.24794zm-2.7273-18.595c0.74381 5.4546 1.7356 11.157 2.4794 16.612h-0.49587c-0.24794-1.7356-0.49588-3.2232-0.74381-4.9588-0.49588-3.967-1.2397-7.686-1.7356-11.653h0.49588m-25.042 46.364c-0.74382 2.4794-1.4876 4.9588-2.2314 7.6861 0.74381-2.7273 1.4876-5.2067 2.2314-7.6861m-14.42 164.63l5.9505-5.2067v0.24794c-1.9835 1.4876-3.967 3.2232-5.9505 4.9587m5.9505-0.99175l-0.24794-0.24794 2.9752-2.2314s0.24793 0.24794 0.24793 0.24794c-0.74381 0.74381-1.7356 1.4876-2.9752 2.2314m6.4464-4.9587l-0.24794-0.24794c1.4876-1.2397 2.9752-2.2314 4.4629-3.4711 0 0 0 0.24794 0.24794 0.24794-1.4876 0.99175-2.9752 2.2314-4.4629 3.4711m5.2067-36.199c-4.4629-1.2397-7.1902-4.2149-9.6696-7.934-2.4794-3.4711-3.4711-7.1902-4.7108-10.909-1.2397-3.967-1.4876-8.1819-1.9835-12.397h0.49587c-0.74381-4.7108 0.99175-9.1737 2.7273-13.389 3.2232-7.4381 8.6778-12.893 14.628-18.099 3.4711-2.9752 6.9422-5.7026 10.909-8.1819 2.2314-1.4876 4.7108-2.7273 7.6861-2.9752 3.2232-0.24794 5.7026 1.7356 5.9505 4.9587 0 1.4876 0 3.2232-0.49587 4.7108-0.74381 3.2232-1.2397 6.1984-2.2314 9.1737-0.74381 1.9835-1.7356 3.967-2.7273 5.9505-0.49587 1.4876-0.74381 2.9752-1.4876 4.4629-2.2314 4.2149-3.967 8.6778-6.9422 12.397-3.4711 4.2149-5.7026 9.1737-8.1819 13.884-0.49588 0.74382-0.49588 1.9835-0.49588 2.9753-0.24793 1.7356-0.49587 3.4711-0.74381 5.2067v1.4876c0.49588 2.2314 1.2397 4.2149 1.4876 6.4464 0 1.4876-1.7356 2.9752-4.2149 2.2314m46.612-38.926c0.24794 3.967-1.2397 7.6861-1.9835 11.653-0.74382 4.9588-3.4711 8.9257-6.1984 13.141-1.2397 1.9835-2.2314 4.4629-4.2149 5.9505-2.7273 1.9835-4.7108 5.2067-8.4299 5.9505-1.9835 0.24794-3.7191 1.2397-5.7026 1.7356-4.7108 1.2397-8.9258-2.2314-8.9258-6.9422 0-4.2149 1.2397-7.934 3.4711-11.653 2.4794-4.2149 4.7108-8.1819 6.9422-12.645 1.9835-3.7191 3.7191-7.4381 5.2067-11.405 0.99174-3.2232 1.2397-6.4464 1.9835-9.6696 0.24794-0.99175 0.49588-2.2314 0.74382-3.2232 0.49587-1.9835 0.99175-3.967 1.7356-5.7026 0.74381-1.7356 1.7356-3.2232 2.7273-4.7108 0.24794-0.24794 1.4876-0.49588 1.9835 0 3.4711 2.9752 6.4464 6.1984 8.1819 10.909 1.4876 4.4629 3.2232 8.9258 2.4794 13.637v2.9752m7.6861 80.332c1.2397 0.99175 2.7273 1.9835 3.967 3.2232 0 0 0 0.24794-0.24794 0.24794-0.99175-1.2397-2.4794-2.4794-3.7191-3.4711m4.7108 7.1902c-3.967-2.9752-7.934-6.1984-11.653-9.1737 0 0 0-0.24794 0.24793-0.24794l11.901 8.9257-0.49588 0.49588m19.587 10.661l-5.9505-5.2067v-0.24794c1.9835 1.9835 3.967 3.7191 5.9505 5.4546m-6.6943-10.165c1.4876 1.7356 3.2232 3.4711 4.7108 5.2067 0 0-0.24793 0.24794-0.24793 0.24794-1.4876-1.9835-3.2232-3.7191-4.4629-5.4546m12.645 12.149l-0.49587 0.49588c-0.99175-0.99175-1.9835-1.9835-2.9752-2.7273 0 0 0.24793-0.24794 0.24793-0.24794 0.99175 0.74381 2.2314 1.7356 3.2232 2.4794m-3.2232-46.612c-0.24793 0-0.24793 0.24794-0.49587 0.24794-1.7356-3.967-3.4711-8.1819-4.9588-12.149 1.9835 3.967 3.7191 7.934 5.4546 11.901m14.628-52.563c2.9752-2.2314 6.1984-4.4629 9.4216-6.6943l0.24794 0.24794c-3.2232 2.2314-6.4464 4.2149-9.6696 6.4464m37.191-31.984c0 0.24794 0.24794 0.24794 0.24794 0.49588-1.7356 0.74381-3.2232 1.7356-4.9588 2.4794 0 0 0-0.24794-0.24794-0.24794 1.7356-0.99174 3.4711-1.7356 4.9588-2.7273m-6.6943 3.7191s0 0.24794 0.24794 0.24794c-3.2232 1.7356-6.4464 3.4711-9.4216 4.9588 2.9752-1.7356 6.1984-3.4711 9.1737-5.2067m-11.653 15.372l-0.24794-0.24794c1.7356-1.2397 3.4711-2.2314 4.9588-3.4711 0 0.24794 0.24793 0.24794 0.24793 0.49587-1.4876 0.99175-3.2232 1.9835-4.9587 3.2232m11.405-10.165s-0.24794-0.24794-0.24794-0.49588c0.99175-0.74381 2.2314-1.2397 3.2232-1.9835l0.24794 0.24793c-0.99175 0.99175-1.9835 1.7356-3.2232 2.2314m2.9752-3.7191c-0.24793 0.24794-0.74381 0-0.99175 0-0.99174 0.99175-2.2314 1.7356-3.2232 2.4794-1.7356 0.99175-3.4711 1.9835-5.2067 2.9752h-0.24793 0.24793c2.7273-1.7356 5.7026-3.7191 8.4299-5.4546 2.4794-1.2397 4.7108-2.4794 7.1902-3.7191-2.2314 1.2397-4.2149 2.4794-6.1984 3.7191m9.1737-7.4381c0-0.24794-0.24794-0.24794-0.24794-0.49588 1.4876-0.74381 2.9752-1.7356 4.4629-2.4794l0.24794 0.24794c-1.4876 0.99175-2.9752 1.7356-4.4629 2.7273"/></g><g fill="#821f81" transform="matrix(.53181 0 0 .53181 -6.0615 96.166)"><polygon points="116.8 44.6 117 44.8 116.7 44.5"/><path d="m118.2 45.8v-0.1s-0.9-0.7-0.9-0.6c0.1 0.4 0.8 0.3 0.9 0.7z"/><path d="m118.3 46.1c0.2 0.4 0.3 0.5 0.4 0.6-0.1-0.2-0.3-0.8-0.4-0.6z"/><path d="m89.8 48.3h0.1-0.1z"/><path d="m52.2 42.8z"/><path d="m101.2 48.1c-0.1 0 0 0 0 0z"/><path d="m115.9 41.4l0.2 0.2s-0.2-0.1-0.2-0.2z"/></g><g transform="matrix(.53181 0 0 .53181 -6.0615 96.166)"><path fill="#821f81" d="m123.1 45.6c0-0.1 0-0.2-0.1-0.4l-0.2-0.1v-0.3l-0.3-0.6c-0.1-0.1-0.2-0.3-0.2-0.4-0.1-0.2-0.2-0.5-0.4-0.8-0.5-0.3-0.9-0.8-1.3-1.1l-0.1-0.2c-0.1-0.1-0.4-0.3-0.6-0.4s-0.4-0.1-0.2-0.1c-1.9-1.1-4.3-1.9-6.6-2.4-0.3 0-1.8-0.3-1.3 0-0.6-0.3-2.3-0.6-3-0.6h0.2c-1.3-0.4-1.5 0.2-2.7-0.2-0.2 0.2-2.2-0.1-2.8 0.2-0.1-0.1-0.2-0.1-0.1-0.1h-3.3c-1.1 0.1-2.1 0.1-3 0.2-1.5 0.3-3.7 0.2-5 0.7-1.1 0-2.9 0.1-4.4 0.5l0.1-0.1c-1.7 0.2-3.9 0.6-5 0.9-0.5-0.2-1.3 0-2 0-1.1 0.3-3.4 0.6-5.1 1-0.3-0.1-1.4 0.3-1.5 0.1-4.8 1.2-10.8 2.2-16 2.8-0.6 0.2-1.3 0.6-2 0.8-0.1 0-0.1 0 0.1-0.1-0.9 0.2-1.9 0.2-2.8 0.4l0.2-0.1c-0.9 0.2-1.9 0.2-2.9 0.5h-0.1l-0.7 0.2c0-0.1 0-0.2 0.4-0.2-8.1 1.3-16.5 3-25 3.1l0.3-0.1s-0.4 0-0.8 0.1h-0.8s0.1 0 0.2-0.1c-2.1-0.1-4.3 0-6.2-0.6 0 0 0.3 0 0.1-0.1-0.7-0.1-1.2-0.4-1.6-0.7s-0.6-0.5-1-0.7c0-0.1 0-0.1 0.1-0.1-0.6-0.7-0.9-1.7-1.3-2.7-0.1-0.1-0.1-0.3-0.2-0.4s-0.2-0.3-0.4-0.4c-0.3-0.2-0.8-0.1-1.1 0-0.6 0.3-0.9 1-0.9 1.6 0 2.2 0.4 4.4 1.5 6.3 2.2 3 6 4.9 9.7 5.3v0.1c2.4 0.4 4.8 0.5 7.3 0.6s5 0 7.4-0.2c2-0.1 3.4-0.3 5.4-0.6l0.1 0.1c2.5-0.5 5.3-0.6 8-0.8 0.2 3 0.3 4.4 0.3 6.8l0.2 0.4c-0.2 0-0.2 0.1-0.2 0.2l0.2 0.4h-0.2c0.3 1.7 0.4 10.6 0.4 11.8v3.9c0-0.2 0 0-0.1 0.4v0.1c-2.6 0.5-3.8 0.1-3.8 1.8 0.6 0.5 0.8 0.8 0.8 1v0.4c-0.5 0-1.2 0.7-2.1 2.1v0.4l0.1 0.4c1.2-0.4 2.2-0.6 2.8-0.7l-0.5 0.2c-0.6 0.1 0.2 0.2 0.1 0.4l-0.3 0.3c-4.5 1-5.1 0.7-6.4 2v0.3c0 0.5 4.6 1 7.9 1.2-0.9 7.3-2.3 16.4-4.2 20.7-3.7 5-7.2 7.5-10.6 7.5-0.7 0-1.2-0.3-1.4-0.8l-1 0.8c-0.9 0-1.9-1.2-2.9-3.5-0.7-0.3-1-1.2-1-2.5v-1.3l-0.4-0.6v-0.2c0-0.5 0.4-1.4 1.3-2.7-0.2 0-0.2-0.1-0.2-0.2-2.1 1.6-3.1 3.8-3.1 6.4 0 0.6 0.1 1.1 0.2 1.7 0.6 3.9 1.7 6.9 3.5 8.9 3.6 1.6 6.6 2.5 8.9 2.5 1.7-0.4 3.1-0.9 4.1-1.4 1.6-1.2 2.7-2.4 3.1-2.4 3.9-3.4 6.9-6.7 8.5-10.2 3-6.5 3.4-14.2 4.3-21.8 5.4-0.6 8.1-1 8.1-1.4 3.9-0.5 5.8-0.1 5.8-1.8-0.8-0.5-1.3-0.8-1.3-1v-0.4c0.7 0 1.8-0.7 3.1-2.1v-0.4l-0.2-0.5c-2.7 0.5-4.5 0.8-5.2 0.8h-0.4c-0.3 0-0.6-0.1-0.8-0.2-0.1 0.1-1.6-0.3-4.6-0.1-0.3-0.2-0.5-0.2-0.6-0.2v-0.2c1-0.1 1.6-0.3 1.9-0.4l0.4 0.2c7.1-0.5 15.4-0.8 15.4-1.9v-0.5c0-0.6-7.3-1-12.3-1.3 0 0.2-0.1 0.2-0.2 0.2-0.2-0.2-0.5-0.8-0.8-0.8h-5.6l-0.6-0.4 0.8-15.9c-0.2 0-0.2-0.1-0.2-0.2 0-0.4 0.1-1 0.4-1.7-0.1-0.7-0.2-3.6-0.2-6.2 0.2 0 0.3 0 0.5-0.1 0.1 0 0.3 0 0.4-0.1l-0.1 0.1c0.2 0 0.5-0.1 0.7-0.1 0.5-0.1 1-0.1 1.4-0.2h0.1c-0.1 0 0 0-0.2 0.1 2.5 0 5.2-0.7 7.8-1l-0.3 0.2c1.2-0.3 3.6-0.5 5.2-0.7v0.1l0.8-0.2v0.1c2.2-0.3 4.2-0.6 6.3-0.8v0.1c1.9-0.4 4.2-0.4 6.3-0.7l-0.1 0.1c3.9-0.3 7.6-0.6 11.3-0.9 2.3-0.1 4.6-0.1 6.9-0.1 1 0 5.6 0 5.6 0.6 0 0.3-1.2 0.6-1.7 0.6-0.8 0.1-1.2 0.4-1.2 0.6 0 0.8 2.8 2.1 3.9 2.1 1.2 0 2.8-0.3 5.1-0.8 2.8-0.7 4-2.1 4-3.6 0-1.2-0.8-2.4-2-3.5zm-96.8 8 2.2 0.1v0.1l-2.2-0.1zm-1.2-0.2h0.8v0.2h-0.8zm2.4 2.1c-0.5 0-1.2 0.1-2 0.2-1.5-0.3-2.5-0.4-3.1-0.4v-0.1l0.8-0.1 2.8 0.1 1-0.1c0.2 0.1 0.4 0.2 0.8 0.2h1c0.2 0 0.3 0.1 0.3 0.3zm3.5-1.4h-1.3v-0.2h1.3zm3.8 66.3-0.2 0.4-0.8-0.2v-0.4h1zm2.5 0.2-1.1 0.2h-0.4v-0.4l1.1-0.2h0.4zm8.8-4.1h-0.2v-0.2l1.1-1.7v0.4c0 0.5-0.3 1-0.9 1.5zm7.9-63.4 0.5 0.1v0.4c-0.2-0.1-0.4-0.2-0.5-0.2zm0.1 0.7v-0.2l0.5 0.1-0.1 1.8-0.2 2h-0.4c0.1-0.3 0.1-1.5 0.2-3.7zm-0.7 10.3 0.1 0.8-0.5 0.1-0.1-0.8zm0 1.4 0.2 1.4-0.5 0.1-0.2-1.4zm-0.5 22.6c0 0.2-0.1 0.7-0.4 1.6h-0.3c0-1.1 0.2-1.6 0.4-1.6zm-0.7-29.3c0.1-1.8 0.1-3.3-0.1-4.4 0-0.1 0.1-0.3 0.2-0.5 0.3 0 0.5 1.4 0.5 4.2-0.2 0.5-0.6 2.4-0.6 0.7zm-4.8-12.1c1.7-0.3 3.3-0.6 5-0.8-1.7 0.2-3.4 0.5-5 0.8zm3.5 70h-0.4v-0.4c0.1 0 0.3-0.1 0.5-0.2-0.1 0.2-0.2 0.4-0.1 0.6zm0.4-10.7c0.4-2.1 0.7-3.4 1-3.8 0.8-0.1 1.7-4 2.7-11.8l0.4 0.1h0.2l0.4-0.2c0 0.1 0.1 0.2 0.2 0.2l-1.2 4.1c-0.7 3.9-1.8 7.7-3.4 11.6h-0.2zm0.1 3.7 1.3-4h0.2v0.2c-0.1 1.2-0.6 2.4-1.5 3.8zm3.4 0.8h-0.4c-0.1-1 0.1-1.7 0.6-2.3 0.9-3.3 1.6-5.2 2.1-5.8 0 0.4-0.7 3.1-2.3 8.1zm1.2-11h-0.2v-0.2l1.2-6.1h0.2l0.5 0.3zm3.7-32.5c-0.2 0-0.2 0.3-0.1 0.9l-0.6 0.1v-0.3l-0.1-2 0.5-0.1c0 0.2 0 0.5-0.1 0.9zm-0.8 5.4 0.1 0.8-0.6 0.1-0.1-0.8zm1.9 1.4-0.5 0.1c-0.1-0.6-0.1-3.1 0.2-7.5l0.6-0.1zm-1.7-29.2c2.1-0.5 4.2-0.9 6-1.1h0.3c-2.1 0.4-4.2 0.8-6.3 1.1zm17.3 6.2c-0.3-0.1-1.8 0.1-4.4 0.4v-0.2l0.2-0.1c0.2 0 1.6-0.2 4.4-0.4l0.1 0.2zm-0.3-5.9v-0.2l1.5-0.2v0.2zm0.3-1.6-1.4 0.4c0-0.3-2.2-0.1-6.6 0.4v-0.2l3.9-0.5c0.2 0 0.5-0.1 0.8-0.3 0 0.1 0.1 0.1 0.3 0.1l1.2-0.2c2.8-0.4 6.5-0.8 11.3-1.3l1.2-0.3c2.8-0.2 6.4-0.6 10.8-1.1v0.3l-1.8 0.2c-1.1 0.1-2.5 0.3-4.2 0.4l-0.6 0.2-0.6-0.1c-3.9 0.6-6.5 1.1-7.8 1.4-1.4 0.1-3.6 0.3-6.5 0.6zm6.6-0.3h-0.2c-0.7 0.2-1.7 0.3-3 0.4v-0.2l0.4-0.1c1.8-0.4 2.7-0.5 2.8-0.1zm-4.9 1.8v-0.1l3.9-0.5v0.1zm2.7 5.6v-0.2h0.2l3.9-0.5 0.1 0.3c-0.5 0.2-1.9 0.3-4.2 0.4zm3.7-6.3v-0.2l2.4-0.3v0.2zm4.6 5.2c-0.4 0.1-0.6 0-0.6-0.2h0.8l0.1 0.2zm0.8-7.4c-1.4 0.3-2.1 0.4-2.3 0.5-0.6 0.3-1 0.5-1.1 0.5 0-0.1-0.2-0.1-0.4-0.1l-0.2-0.6c0.3-0.1 1.7-0.3 4.1-0.5v0.2zm0.8 7.3v-0.2l0.9-0.3v0.2zm1.2-0.1-0.1-0.2 0.9-0.3 0.1 0.2zm2-5.8 0.6-0.2c1.8-0.3 2.8-0.4 3-0.4h0.2l0.1 0.2c0.1 0.2 0 0.4-0.3 0.5h-0.2c-1.7-0.1-2.8 0-3.2 0.1zm5.9 5.4c-0.3 0.1-1.7 0.1-4.3 0.2l-0.1-0.2h0.2l4.3-0.2v0.2zm2.2-0.8c-0.2 0.1-0.4 0-0.5-0.3l-0.1-0.4h0.2c0.2-0.1 0.4 0 0.5 0.3zm3.4-6.7-0.1-0.4c1.5 0.1 3.1 0.3 4.7 0.7l0.1 0.4c-2.5-0.6-4.1-0.9-4.7-0.7zm-1.1-2.6c-6.2 0-13.5 0.8-21.3 2 1-0.2 2.1-0.4 3.1-0.6 6.6-0.7 13.2-1.8 19.6-1.4 1.6-0.1 3.2 0.1 4.8 0.4-2.1-0.3-4.3-0.4-6.2-0.4zm15 3c0.3 0.1 0.7 0.2 0.7 0.4h0.1c0.6 0.5 0 0.1 0.5 0.5 0.2 0.1 0.2-0.1 0.5 0.3-0.1 0.1 0.1 0.3 0.3 0.5-0.6-0.7-1.4-1.2-2.1-1.7zm2.3 1.9l0.1 0.1c0.1 0.2 0.3 0.3 0.4 0.5-0.2-0.2-0.3-0.4-0.5-0.6z"/></g><g fill="#821f81" transform="matrix(.53181 0 0 .53181 -6.0615 96.166)"><path d="m133.2 92.6c-5-0.1-7.8-0.2-8.5-0.2s-1.1 1.7-1.1 5c0.1 0 0.2 0.1 0.2 0.2-0.6 7.3-1.1 13-1.6 17.3 0 1.4-0.9 3-2.6 4.8-1.5 1.8-3.3 2.6-5.3 2.6-0.8-0.1-1.6-0.5-2.5-1.2-2-1.5-3-5.5-3-12.1 0-5 0.8-10.7 2.5-17.1-0.5-0.4-1-0.5-1.6-0.5h-4.9c-0.6 0-1.6-0.1-3-0.2 0 0.2-0.1 0.3-0.3 0.3-1.2 4.4-1.8 10.4-1.8 18v0.3c-0.8 1.2-1.9 3.1-3.3 5.8-1.4 2.4-3 4.1-4.6 5.3h-0.2c-0.7 0-1.2-1.3-1.5-3.8l0.2-0.3-0.2-0.3c0.1-1.2 0.2-2.3 0.2-3.1v-1.1l0.1-1.2c-0.1 0-0.1-0.1-0.1-0.2l0.1-0.3c0-2.8 0.3-6.7 0.8-11.5-0.2-0.1-0.2-0.2-0.2-0.3h0.2c0.3-7 0.7-13.8 1.2-20.4-0.1 0-0.2-0.1-0.2-0.2 0.1 0 0.2-0.1 0.2-0.2v-1.8c0-1.6 0-3.7 0.1-6.4 0.1-0.2 0.2-0.4 0.2-0.5-0.1 0-0.2-0.1-0.2-0.2l0.2-1-0.2-0.3h0.2l-0.2-0.8v-2.5l0.2-1.9c-0.4-0.2-0.8-0.3-1.1-0.3 0-0.8-0.5-1.2-1.4-1.2h-1.1l-0.3 0.2-1.7-0.5c-1.4 0-2.3 0.4-2.8 1.3v1.6h-0.1c0-0.8-0.1-1.1-0.3-1.1h-0.2c0 0.1 0.1 0.3 0.2 0.5-0.5 12.3-0.9 19-1.1 20.2-0.3 3.1-0.6 9.3-1.1 18.8l-0.2 0.8c0.1 0 0.2 0.1 0.2 0.2l-0.2 0.3c0.1 0.3 0.2 1.3 0.3 2.8-0.1 0.7-0.1 1.4-0.1 2.2v6.4l0.1 1.2c-0.1 0-0.1 0-0.1 0.1 0.2 2.5 0.5 4.5 0.9 6.1 0.8 2.6 2.5 4 4.9 4h0.3c1.8 0 3.5-0.7 4.9-2.2 1-1 3-4.2 5.7-9.7 0.3-0.6 0.8-1.4 1.3-2.5 0.2 1.9 0.4 2.8 0.5 2.8 0 2.9 1.5 5.9 4.4 9 2.5 1.5 4.9 2.4 7.4 2.7 2.9 0 5.9-1.5 9-4.4-0.7 4.2-1.6 7.6-2.6 10.2-1.5 5.2-3.7 8.7-6.7 10.4-1 0.9-2.6 1.4-4.6 1.4h-0.9c-2.1 0-4.2-1.1-6.5-3.3-1.2-1.8-1.9-3.6-2.1-5.5 0-2.8 0.8-5.4 2.5-7.7l-0.2-0.9c0.2 0 0.4-0.1 0.7-0.3 0-0.2-0.1-0.3-0.3-0.4h-0.2c-3.5 2.5-5.3 6.3-5.3 11.5 0 1.5 0.6 3.3 1.8 5.5 2.1 4.5 6.4 6.7 12.9 6.7 5.6 0 10.4-2.8 14.5-8.4 1.7-1.7 3.7-6.2 6.2-13.6 1.4-4.5 2.9-13.5 4.6-27.1-0.1 0-0.2-0.1-0.2-0.2 0.1-0.2 0.2-0.4 0.2-0.7v-0.3c0-1.6 0.1-2.9 0.3-3.9l-0.2-0.9c-0.1-1-0.6-1.5-1.7-1.8zm-47-3.8h0.2v0.8h-0.2zm-1.2 1.3c-0.3 0-0.4 1.2-0.4 3.6h-0.2v-2.2c0-0.1 0-0.3-0.1-0.5 0.1 0 0.1-0.1 0.1-0.2v-0.7c0-1.5 0.1-3.6 0.2-6.2l-0.2-0.7c0.2-1.5 0.3-3.5 0.3-5.9h0.3v1c0 0.6 0 1.4-0.1 2.3l0.1 0.4-0.1 0.3c0.1 2.1 0.2 3.6 0.3 4.3-0.2 0.8-0.3 2-0.3 3.6zm1.2 29.6c-0.2-1.2-0.3-1.9-0.3-2.3l0.2-1-0.3-1.8c0.1-1.2 0.1-2.3 0.1-3.3v-3.1h0.3v2.3l0.2 0.3c-0.1 0-0.2 0.1-0.2 0.2v2.2c0 2.9 0.1 5.1 0.3 6.6h-0.3zm0.3-31.3h-0.1v-2.2h0.1zm0.2-3.4h-0.2v-1.3h0.2zm0.1-12.9h-0.1v-0.8h0.1zm0.3-9.2-0.1 1 0.1 0.3c-0.1 0.2-0.1 0.4-0.1 0.7v0.5c0 0.4 0 0.7 0.1 0.9l-0.1 1v2l-0.2 0.7c0.1 0 0.2 0.1 0.2 0.2l-0.2 0.8h-0.1c0-2-0.2-4.6-0.5-8.1v-0.2h0.9zm0.8 41.3-0.2 1.6h-0.1v-2c0-0.2 0.1-0.3 0.3-0.3zm0.3-12h-0.1l-0.2-0.8v-2.8l-0.2-1c0.1-0.2 0.2-0.5 0.2-0.8v-1c0-0.2 0.1-0.3 0.3-0.3v1.6c0 0.5 0.1 1.2 0.3 2-0.2 1.5-0.3 2.5-0.3 3.1zm0.6 20.6h-0.1v-0.8c0.2-4 0.3-6.8 0.3-8.4v-1.5h0.1l0.5 0.3zm-0.1-49.5v-0.6h1.5l0.3 0.1-0.3 0.5c-0.2 0-0.4-0.1-0.6-0.2-0.5 0.1-0.8 0.2-0.9 0.2zm2.8 59.5h-0.5c-0.2 0-0.3-0.1-0.3-0.3h0.8zm10.4-14.1h-0.2c0-0.5-0.1-0.9-0.2-1l0.2-0.7v-3.5h0.2zm1.4-12.5 0.4-0.5 0.3 0.2c-0.3 1.1-0.5 1.6-0.7 1.6zm0.9 21.8h-0.2c-0.2-1.1-0.5-1.9-0.7-2.5h0.4c0.3 1.1 0.5 1.7 0.5 1.9zm0.8-16.5v-0.9c0-0.7 0.2-2.3 0.5-4.8h0.2c0 0.1 0.1 0.3 0.2 0.5 0 3.5-0.3 5.2-0.9 5.2zm2 11.4h-0.2c-0.3-1.6-0.4-2.6-0.4-3l0.2-0.9h0.2c0 0.7 0.1 1.8 0.2 3.2zm10 27c0 0.5-0.3 1-1 1.4h-0.2v-0.2l1.2-1.6zm3.7 1.9h-0.4v-0.4c0.1 0 0.3-0.1 0.5-0.2 0 0.3-0.1 0.5-0.1 0.6zm4.1-35c0.5-4.9 0.7-8.9 0.7-12 0-0.3 0.1-0.5 0.3-0.5l-0.2 1.2v1.2c0 4.3-0.2 7.9-0.7 10.6h-0.2v-0.5zm-0.4 6.7h0.3c0 0.2-0.2 0.7-0.5 1.6h-0.3c0.1-1.1 0.3-1.6 0.5-1.6zm-0.9 17.7c-0.2 1.1-0.8 2.4-1.7 3.7l1.6-3.9h0.2v0.2zm-1.4 0.2h-0.1v-0.2c0.5-2.1 0.9-3.3 1.2-3.7 0.8 0 1.9-3.9 3.5-11.6l0.3 0.2h0.2l0.4-0.2c0 0.1 0.1 0.2 0.2 0.2l-1.4 4c-1 3.9-2.4 7.6-4.3 11.3zm3 4.6h-0.4c0-1 0.2-1.7 0.7-2.3 1.2-3.2 2-5.1 2.5-5.6 0 0.4-0.9 3-2.8 7.9zm2-10.9h-0.2v-0.2l1.6-6h0.2l0.5 0.4zm3.1-24.4h-0.2v-1h0.2zm2.7-4.2v0.3c0 0.2-0.1 0.3-0.3 0.3 0-0.3-0.1-1.1-0.3-2.3h0.7c0 0.1-0.1 0.3-0.2 0.5z"/><path d="m144.3 86.1h0.8c3.1-1 4.6-3.3 4.6-6.9v-0.6c-1-2.8-2.8-4.3-5.2-4.3-0.4 0-1.3 0.3-2.7 0.8-2.1 1.3-3.2 2.9-3.2 5v0.9c1.1 3.4 3.1 5.1 5.7 5.1zm1.1-8.1c-0.2 0.3-0.3 0.4-0.4 0.4l0.1-0.6h0.3zm1.2 5.8c0 0.2-0.1 0.3-0.3 0.3h-0.2v-0.4h0.5zm1.5-5.3c0.2 0 0.4 0.4 0.5 1.2-0.9 0-1.4 0.4-1.4 1.1h-0.2v-0.1c0.5-1.5 0.8-2.2 1.1-2.2zm-0.9-1.4h0.3v0.3c-1 1.7-1.6 2.6-1.7 2.6 0.6-1.9 1.1-2.9 1.4-2.9zm-3.6-1.2c0-0.2 0.4-0.4 1.1-0.5 1.5 0.2 2.3 0.5 2.3 0.9-0.3 0-0.6 0-0.8 0.1-0.3-0.2-0.4-0.4-0.4-0.4-0.4 0-0.9 0.4-1.5 1.1h-0.3l0.1-0.8c0-0.2-0.2-0.3-0.6-0.3v-0.1zm-3.4 5.5v-0.3l1.2-1.2c0 0.5-0.3 1.1-0.8 2-0.2-0.2-0.4-0.4-0.4-0.5z"/><path d="m220.8 93.7c0-1.1-1.3-1.8-3.9-2l-0.9 0.2c-0.6 0-1.4-0.1-2.5-0.2-1.4 0.6-2.1 1.5-2.1 2.7h-0.2c-0.4-0.2-0.8-0.6-1.3-1.2-1.3-1.1-3.1-1.8-5.3-2h-1.2l-0.9 0.2c0-0.1-0.1-0.2-0.2-0.2-3.5 0-7.1 1.5-10.7 4.6-4.7 3.9-7.1 9-7.1 15.2v1.5c0 0.8 0.1 1.8 0.3 2.8-1.3 2-2.8 3.8-4.7 5.2h-0.1c-0.7 0-1.1-1.1-1.3-3.4 0.3-2.2 0.6-5.8 1-11 0-0.4-0.4-3.1-1.2-8-1.6-3.5-2.8-5.2-3.6-5.2-1-1-2.9-1.5-5.7-1.5-2.4 0-4.4 1.2-5.9 3.6h-0.3c0-0.2-0.1-0.8-0.2-1.9 0-2-1-3.2-3.1-3.5h-3.2c-1.8 0-3.1 0.3-3.6 1 0 1.6 0.1 4 0.2 7.2-0.4 8.2-0.7 14.6-1.1 19.4 0 0.1-0.1 0.2-0.1 0.3-2.1 2.7-3.5 4.1-4.4 4.1h-0.4c-1.1 0-1.8-1.1-2.2-3.3 0.3-8.1 0.9-15.7 1.7-22.7v-2.6c0-0.2-0.1-0.3-0.3-0.3l0.3-0.6c0-0.4-1.1-0.7-3.2-0.8h-0.6l-0.8-0.1c0 0.1-0.1 0.1-0.2 0.1 0-0.1 0-0.1-0.1-0.1h-2.5l-0.3 0.1c0 0.2 0.1 0.4 0.3 0.8-1.2 9.2-1.8 15.8-1.8 19.8 0 0.4 0 1.7 0.1 3.8-0.1 0.2-0.1 0.3-0.1 0.4 0.4 3.6 0.9 5.8 1.4 6.6 0 1.7 1.8 2.9 5.5 3.5 2 0 4.2-1.2 6.4-3.7 0.5-0.8 0.9-1.6 1.3-2.3v0.3c0 0.8-0.1 2.1-0.3 3.8 0 0.7 2.7 1.2 8.2 1.3 0.5 0 0.8-0.3 1.2-0.8v-0.2l-0.3-0.5c0.4 0 0.9-4.7 1.5-14.1l-0.2-0.3c0-0.3 0.2-1.8 0.5-4.4l-0.2-0.3c0.1 0 0.2 0 0.2-0.1v-1.2c0.3-2.3 0.6-3.7 1-3.9 0-1.4 0.5-2.3 1.6-2.8 2.6 0 4.3 1.3 5.2 3.8 0.9 1.8 1.3 3.8 1.3 6.2v2.5l-0.2 0.8c0.1 0 0.2 0 0.2 0.1-0.1 3-0.2 5.5-0.2 7.6v2.6c0 1.1 0.1 1.6 0.3 1.6 0 2.3 1.5 3.7 4.4 4.1h0.7c1.2 0 2.6-0.6 4.2-1.9 1.6-1.6 3.3-3.7 4.9-6.1 1.9 5.3 5.2 8 9.9 8l0.3-0.2c0 0.1 0.1 0.2 0.2 0.2h0.2c4.6 0 8.4-1.6 11.5-4.7h0.2c-0.7 3.9-1.3 7.1-2 9.6-2.2 9.1-6 13.7-11.5 13.7-2.7 0-5-1.2-7.1-3.7-1.4-2.6-2.1-4.7-2.1-6.4v-1.2c0-0.6 0.1-1.2 0.3-2-0.1-0.2-0.2-0.4-0.2-0.5 0.3-0.6 0.5-1 0.5-1.4-0.3-0.5-0.5-0.7-0.7-0.7h-0.2c-0.6 0.4-1.2 1.8-1.7 4.2v3.7c0.3 3 1.1 5.5 2.5 7.3 3.1 3.5 6.6 5.2 10.5 5.2 0.3 0 1-0.1 2-0.3l0.5 0.3h0.2c1.1-0.3 1.7-0.5 1.7-0.7 1.4 0 3.7-1.2 6.7-3.7 1.2-1.1 2.8-3.4 4.9-6.9 0.8-2.5 1.5-4 2.2-4.8l-0.2-0.3 1-4.9 1-4.6-0.2-0.3c0.1-0.2 0.7-2.9 1.7-7.9-0.1 0-0.2-0.1-0.2-0.2h0.2l2.9-19.3c0.1-1.4 0-2.1-0.2-2.1zm-76 0.8 0.2-1.8h0.8v0.9c-0.2 3.3-0.5 5-0.8 5h-0.2zm-6 21.3-0.2 0.3 0.2 1.8v0.1c-0.3 0-0.5-1.1-0.5-3.2v-1.1l-0.1-0.3h0.3l0.3 0.2c0 0.2-0.1 0.8-0.2 1.7 0.1 0.1 0.1 0.3 0.2 0.5zm1.2 6.7c-0.2 0-0.4-0.3-0.6-0.8v-0.2h0.6c0 0.3 0.1 0.6 0.2 0.8-0.1 0-0.2 0.1-0.2 0.2zm1.4-7.9v4.2c-0.2 0-0.3-0.1-0.3-0.3v-1.2c0-0.2 0.1-0.4 0.2-0.6-0.1 0-0.2-1.1-0.3-3.2 0-0.2 0-0.8 0.1-1.8h0.2c0 0.1 0 0.3 0.1 0.4l-0.1 0.3c0.1 0.9 0.1 1.6 0.1 2.2zm1.1 7.5c-0.5-0.2-0.8-0.6-0.8-1.2h0.4c0.2 0 0.3 0.1 0.3 0.3v0.9zm0-18.7-0.4 2.1h-0.1c0-0.9-0.1-1.5-0.2-1.8l0.2-0.3c-0.1-0.7-0.2-1.3-0.2-1.7v-0.9c0-0.2 0.1-0.4 0.2-0.6-0.1-0.2-0.2-0.4-0.2-0.6v-2.1l0.2-0.8h0.3v0.1c0 1.1 0.1 2.6 0.2 4.4-0.1 0.2-0.2 0.4-0.2 0.5 0.1 0 0.2 0.2 0.3 0.6l-0.1 0.8zm0.1-9.6-0.8-0.1h-0.5v-0.5c0.5 0 0.8 0 0.9-0.1 0 0.1 0.2 0.2 0.6 0.3zm1.4 28c-0.2 0-0.3-0.1-0.3-0.3v-1.9c0.1 0 0.4 0.8 0.8 2.3h-0.5zm0.4-18.8c0 0.1-0.1 1.5-0.3 4.1 0 0.2-0.1 0.4-0.3 0.6l-0.3-0.1 0.8-5.5h0.1zm9.2 16.9h-0.3c0-0.2 0-0.8 0.1-1.8h0.2zm2.5-25.7v-0.6l0.6 0.2v1.6c-0.5 0-0.8 0-1 0.1 0.1-0.1 0.2-0.5 0.4-1.3zm0.6 11.3c0-0.3 0.1-0.5 0.3-0.5v1h-0.2c0.1-0.1 0-0.3-0.1-0.5zm0.7 18.1h-0.3l0.2-0.6h0.1zm2-24.3h-0.2l-0.3-0.2 0.1-0.3v-0.2l-0.1-0.8c0.1 0 0.1 0 0.1-0.1l-0.1-0.3c0.1 0 0.1-0.1 0.1-0.2-0.1-1.8-0.3-2.8-0.6-2.8 0-0.1 0.1-0.5 0.3-1.3v-0.2l-0.5-0.6v-0.2c0.3 0 0.5-0.1 0.7-0.2 0.2 0 0.4 1.9 0.5 5.7-0.1 0.6-0.2 0.9-0.2 1 0.1 0 0.2 0.2 0.2 0.7zm13.7 20.1h-0.2v-0.7h0.2zm0-1h-0.3v-0.2l0.1-1-0.1-0.3c0.1-0.6 0.1-1.1 0.1-1.3h0.2zm0.3-5.9h-0.2v-0.6h0.2zm-0.6-10.6h-0.2l-0.3-1.5v-0.2c0.8 0.4 1.2 0.7 1.2 0.8-0.5 0.1-0.7 0.3-0.7 0.9zm3.9 17.8h-0.3c-0.3 0-0.4-0.5-0.5-1.6h0.1c0.2 0 0.4 0.5 0.7 1.5zm19.6 27.8h-0.5c-1.7-0.1-2.5-0.3-2.5-0.7l0.9 0.2h1.2c0.3 0.2 0.6 0.3 1 0.3v0.2zm7.8-6.4c1.1-3.2 1.8-4.8 2.2-4.8 0 1.4-0.7 3-2.2 4.8zm2.7-5.8h-0.2v-0.6h0.2zm1.4-6c0 0.4-0.2 1.3-0.6 2.7h-0.2v-0.2c0-0.2 0.2-1.2 0.6-2.9h0.2zm-12.9-29.6c0-0.2 0.1-0.3 0.3-0.3 0-1 1.6-2.4 4.8-4.2h0.3v0.2c-0.6 0-2.4 1.5-5.4 4.5zm-7.6 9.8h-0.2v-0.6h0.3c0 0.1-0.1 0.3-0.1 0.6zm0.5 9.3v-0.2c0.4 0.2 0.7 0.6 1 1.4v0.3c-0.5-0.4-0.8-0.9-1-1.5zm1 1.7h0.2c0.2 0 0.8 0.7 1.9 2.2-0.6 0-1.3-0.8-2.1-2.2zm4.8-1.2c-0.1 0-0.3 0.1-0.5 0.2-0.7 0-1.5-2.1-2.5-6.4 0-0.1 0.1-0.5 0.2-1.3l-0.2-1.5c0.3-1.2 0.6-1.8 0.8-1.8 0 0.5-0.1 1.5-0.3 3 0 0.2 0.1 0.3 0.2 0.3 0 3.1 0.8 5.6 2.4 7.2v0.3zm15.9-9.7c-0.2 0.5-0.6 2.5-1 5.9 0 1.3-0.4 2.1-1.2 2.4-2.8 1.5-4.8 2.2-6.1 2.2l-0.8-0.2c-4.9-0.7-7.3-3.6-7.3-8.8 0-3 0.6-5.7 1.8-8 3-4.8 5.9-7.2 8.8-7.2h2.5c1.6 0.4 3.1 1.5 4.4 3.3-0.4 4.7-0.9 7.9-1.3 9.5zm3 22.4c-0.3 0.4-0.5 0.9-0.7 1.7h-0.2v-0.2c0.5-1 0.7-1.7 0.7-2h0.2zm0-10.7c0 2-0.3 3.5-0.9 4.5h-0.2v-0.2c0-0.2 0.3-1.8 0.9-4.9h0.2c0 0.1 0.1 0.3 0.2 0.5h-0.2zm0.2-0.7h-0.2v-1h0.3zm2.2 2.2h-0.2v-0.3c0-0.3 0.1-0.5 0.3-0.5zm1.8-28.9c-0.6 2.8-1.1 4.2-1.4 4.2h-0.2c0.3-3.1 0.7-4.6 1.2-4.6h0.7c0.1 0.3 0 0.4-0.3 0.4z"/><path d="m301.9 112.6c0.2 1 0.6 2 1 2.8 1 3.2 2.9 5.9 5.7 8.1 1.4 1.1 4.3 2 8.5 2.6 1-0.1 1.8-0.2 2.4-0.2 4.5-1.1 8-2.8 10.6-5.3 1.4-1.7 2.4-2.5 2.8-2.5v-0.1l-0.2-0.3c0.1 0 1.1-1 2.9-2.9 0.3-0.6 0.6-1.1 0.8-1.6 0 0.2 0.1 0.5 0.1 0.8 1.4 5.4 2.4 8 3 8 2.7 2.4 5.2 3.7 7.6 4.1 3.2 0 5.6-0.8 7.2-2.4l3.5-3.1 1.4 2.5c0.9 1.4 2 2.3 3.5 2.7 2.5 0 4.3-0.6 5.4-1.7 1-0.3 2.1-1.7 3.5-4.1 0.8-1.4 1.4-2.5 1.8-3.5 0.3 1.3 0.8 2.7 1.5 4.5 2.7 3.3 5.6 5 8.6 5h1.1l0.8 0.2c1-0.1 2.8-0.5 5.3-1.3 2-0.8 4-2.8 6-6 0.4 0 0.8-1.8 1.2-5.3 0-2.2-1.1-5-3.4-8.4l-4-4.2c-1.6-1.1-2.4-2.6-2.4-4.5v-0.2c0.8-1.6 2.1-2.4 4-2.4h0.5c2.3 0 4.4 1.2 6.2 3.6 0.7 2.1 1.1 3.1 1.3 3.1h0.2c0.2 0 0.4-0.3 0.6-0.8 0-0.2-0.1-0.7-0.3-1.6-2.2-5.3-5.8-7.9-10.7-7.9h-0.3c-2.3 0-4.6 0.9-7.1 2.6-1.7 1-2.9 3.1-3.7 6.3l0.1 0.3c0 0.1 0 0.3-0.1 0.5 0.2 2.4 0.9 4.5 2.1 6.2 3.5 3.4 5.3 5.2 5.3 5.5 0.7 0 1.4 1.6 1.9 4.9 0 1.2-0.4 2.3-1.3 3.2-0.7 0.6-1.9 1.1-3.6 1.5h-1c-3.2 0-5.6-2.4-7.1-7.3 0.1-0.2 0.1-0.4 0.1-0.5s-0.1-0.9-0.3-2.4v-0.2c0-1 0.4-2.6 1.1-4.7 0-0.3-0.1-0.5-0.3-0.5 0.3-0.6 0.5-1 0.5-1.3 0-0.4-0.2-0.6-0.5-0.6-1.8 1.9-2.7 5.3-2.7 10.3v0.5c-0.1 0.8-0.6 2-1.4 3.6-1.6 1.9-3.1 2.8-4.4 2.8-0.9-0.5-1.4-1.4-1.4-2.5v-0.8c0-2.2 0.1-4 0.3-5.2 1.4-11.5 2.1-18.5 2.1-21v-0.5c0-0.5-0.2-0.8-0.5-1l-0.3 0.2-0.3-0.5v-0.5c0.2 0 0.7 0.1 1.3 0.2l0.3-0.2c0-0.5-1-0.8-3.1-1-0.2 0.1-0.4 0.2-0.5 0.2 0-0.2-0.6-0.4-1.6-0.6-1.2 0.5-2.2 0.8-3 0.8-0.5 0-0.8 1.2-0.8 3.5-0.3-0.4-1.3-0.7-2.8-1h-0.1c-3.6 0.3-6.5 1.1-8.5 2.4-4.1 1.9-7 4.7-8.8 8.4-1.6 2.8-2.5 5.7-2.8 8.8-3.3 3.7-5.3 5.5-5.7 5.5l0.1 0.3c-0.6 0.7-0.9 1.1-1.1 1.1 1.5-3.4 2.4-5.1 2.5-5.1 0-0.1 0-0.3-0.1-0.5 0.2-1.5 0.4-2.3 0.6-2.3 0-0.5-0.1-0.8-0.2-0.9 0.1-0.6 0.2-1 0.2-1.4v-1.6c-0.2-0.1-0.3-0.7-0.5-1.8 0.1 0 0.2-0.1 0.2-0.2-0.3-0.4-0.5-0.9-0.5-1.5l-0.9-3c-1.5-3.3-3.4-5.4-5.7-6.5 0-0.5-2.2-1.1-6.5-1.7-1.9 0.4-3.2 0.6-3.9 0.6-3.1 1-5.2 2-6.5 3-2.4 2.1-4 4.1-4.8 6.2-1.3 2.1-2 5-2 8.5m83.3-13h0.3v0.8c-0.2 0-0.3-0.1-0.3-0.3zm-1.2 7.2c0.2 0 0.4 0.3 0.6 1v0.2c-0.2-0.1-0.4-0.3-0.6-0.8zm-1.6-8.5v-0.3c0-0.2 0.1-0.3 0.3-0.3v0.3c0.1 0.2-0.1 0.3-0.3 0.3zm4.4 14.2-4-3.9v-0.3h0.3c0 0.8 0.6 1.3 1.9 1.5 0.5 0 1.1 0.8 1.8 2.4zm-20.2-12.2v0.5l-0.6 6.6-0.3-0.2c0.2-4.6 0.5-6.9 0.9-6.9zm-61.4 14.9c-0.3 0.5-0.5 0.8-0.6 0.8h-0.2v-0.2c0.4-1.3 0.6-2.3 0.6-2.9h0.1v2.3zm12.3-17.4c0.1 0 0.3-0.1 0.5-0.2l1.9 0.2v0.1c-0.3 0-0.5 0.1-0.6 0.2-0.7-0.1-1.3-0.2-1.7-0.2v-0.1zm-2.8 0.9h0.4v0.2l-1.5 0.6h-0.2c0.1-0.6 0.5-0.8 1.3-0.8zm-4.5-0.3 0.1 0.3v0.2h-0.8c0-0.2 0.3-0.4 0.7-0.5zm-0.7 10.1c0-1.6 0.6-2.8 1.7-3.4v0.1c-0.9 1.4-1.5 2.7-1.7 3.7h-0.1v-0.1c0-0.2 0.1-0.3 0.1-0.3zm-0.7-5.9v-0.2c0.2-0.2 0.3-0.5 0.3-0.6h0.3c-0.3 0.5-0.5 0.8-0.6 0.8zm0.9 17.4h-0.2c0-0.2 0-0.4-0.1-0.6v-0.2h0.1c0 0.1 0.1 0.3 0.2 0.5zm0.9 1.6c-0.2 0-0.4-0.4-0.8-1.1v-0.3h0.1c0 0.3 0.2 0.7 0.6 1.1v0.3zm17.6-8.5c0 0.1-0.1 0.9-0.4 2.5 0.1 0 0.1 0 0.1 0.1-1.1 3.2-1.9 5.1-2.5 5.6-0.4 1.8-2.7 2.9-6.8 3.4-1.2-0.1-2.3-0.5-3.4-1.4-3.1-2.6-4.6-5.6-4.6-9v-0.6c0-2.2 0.7-4.7 2-7.6 2.5-3.1 4.9-4.6 7.1-4.6h0.9c0.4 0 0.9 0.1 1.3 0.2 0.5 0 1.5 0.7 3.1 2.2 0.6 0.3 0.9 0.6 0.9 1.1 1.5 1.8 2.3 4.3 2.3 7.5-0.1 0.2-0.1 0.4-0.1 0.5zm20.8-15 0.8 0.1 0.8-0.1h0.1c0 0.1-0.9 0.9-2.8 2.5h-0.1c0-0.1-0.1-0.3-0.2-0.5 0-0.8 0.4-1.5 1.4-2zm-6.5 19.7 0.1-1-0.1-0.3c0.2-0.7 0.3-1.2 0.3-1.4v-0.3c0-0.2-0.1-0.4-0.2-0.6 0.2-2 0.4-3.3 0.6-3.9h0.1v3.8l0.2 0.3c-0.3 0-0.6 0.9-0.8 2.8 0.4 1.5 0.8 2.5 1.1 3v0.1h-0.3c-0.3 0-0.7-0.8-1.1-2.2v-0.3zm-2.2-3.8h0.2v0.8h-0.3zm-3 2.1v-0.5-0.7c0.1-0.1 0.1-0.1 0.2-0.1v-1.4c0.2-1.4 0.5-3 1.1-4.6h0.2v0.1c-0.7 3.1-1.1 5.3-1.1 6.5l0.8 2.8c0 0.2-0.1 0.4-0.3 0.6-0.4-0.1-0.7-0.9-0.9-2.7zm3.3 7.8c-1-0.8-1.6-1.6-1.9-2.4 0-0.1 0.1-0.3 0.2-0.5-0.4-0.4-0.6-0.9-0.6-1.7v-0.1h0.5c0 0.8 0.6 2.4 1.9 4.6v0.1zm0.4-2.6c-0.3 0-0.5-0.5-0.6-1.3v-0.1h0.2c0.3 0.1 0.5 0.4 0.5 0.9v0.5zm3.1 5.5h-0.5c-0.8-0.4-1.3-0.8-1.4-1.3l1.1 0.3h0.1c0.2 0 0.3-0.1 0.3-0.3v-0.1l-0.2-1.6h0.2c0.1 0 0.3 0.6 0.6 1.7l-0.5 0.6v0.3zm10.2-0.8h-0.1v-0.3c0-0.2 0.3-0.4 0.9-0.8h0.3c-0.1 0.3-0.4 0.7-1.1 1.1zm3.5-6.3-0.2 0.8c-2.8 2.2-5.2 3.3-7.4 3.3h-0.4c-0.5 0-1.4-0.5-2.8-1.6-1.6-1.8-2.4-3.7-2.4-6 0.1-3.3 0.4-5.7 0.8-7.2 0.8-2.9 1.9-5.5 3.5-7.6 1.6-1.5 2.4-2.2 2.4-2.4 1.8-1.5 4.4-2.5 7.7-3 0 0.1 0.2 0.2 0.5 0.2v0.1c0 1.1-0.2 4.6-0.6 10.3 0 0.3 0.1 0.6 0.2 0.8l-0.2 0.4c0 1.8-0.3 5.2-0.9 10.1v1.8zm1.6 1.7c-0.4-0.2-0.6-0.6-0.6-1.4v-0.9c0-1.2 0.2-1.7 0.5-1.7h0.2c0 0.7 0 2 0.1 4.1h-0.2zm5.5-25.3h0.1v0.6h-0.1zm-0.3 23h0.1v0.8h-0.1zm0 2h0.1c0 0.1 0.1 0.3 0.2 0.5v0.2h-0.3zm-4.1-28.3 0.6 0.3-0.1 2.2h-0.5zm-0.2 6.6v-3l0.2-0.3 0.3 0.2c0 0.6-0.1 1.6-0.3 3.1zm1.3 26.8c0 0.2-0.1 0.3-0.3 0.3s-0.3-0.2-0.5-0.6c0-0.2 0.1-0.3 0.3-0.3h0.5zm0.4-12.5h-0.2l-0.3-0.2c0-0.2 0.1-0.7 0.3-1.4h0.2zm0.2-17v-0.1h0.3v0.5c-0.2-0.1-0.3-0.2-0.3-0.4zm3 30.4c0 0.2-0.5 0.4-1.6 0.6-0.8-0.1-1.3-0.3-1.3-0.6v-0.2c0.1 0 0.3 0.1 0.5 0.2 0.7-0.3 1.1-0.5 1.3-0.5l1.1 0.3zm28.7-5.5c0-0.2 0.1-0.3 0.3-0.3l-0.1 0.8h-0.2zm-3.4-14.1h0.3c1.5 2.1 2.3 3.4 2.3 3.9v0.2c0 0.2-0.1 0.3-0.3 0.3v-0.3c-1-1.4-1.7-2.7-2.3-3.9zm-1 8.4c-0.4-0.2-0.6-0.5-0.6-0.6h0.3c0.2 0 0.3 0.2 0.5 0.6zm0.4-9.1v0.2h-0.2c-0.2 0-0.5-0.4-1.1-1.3 0.4 0 0.9 0.4 1.3 1.1z"/><path d="m315.5 123.5l-0.4-0.2v-0.1h0.1l0.3 0.1z"/><path d="m474.7 99v-0.6c0-1.2-0.2-2.2-0.6-3.1-1.2-2.3-2.7-3.4-4.5-3.4l-0.3 0.2-0.1-0.3c-3.9 0-6.7 1.4-8.4 4.1v-2.9c0-0.9-1.7-1.5-5-1.8l-1 0.2-0.3-0.2c-0.2 0.1-0.3 0.2-0.5 0.2h-1l-1-0.2c-0.3 0.2-0.6 1.5-0.9 3.7-0.2 5-0.5 9.4-0.7 13.3-0.3 0.6-0.6 1.3-0.9 2-1.3 1.9-2.8 3.6-4.5 5.2-1.7 1.9-4.6 3.6-8.8 5-2.8 0-5.2-0.7-7.2-2.2-2-2.2-3-4.2-3-6.1l0.2-0.3 1.4 0.1c3.8-0.4 5.7-0.7 5.7-0.9 3 0 6.2-1.6 9.6-4.9 2.3-3.1 3.5-5.7 3.5-7.5 0-0.8-0.3-2-0.8-3.5-1.3-2.5-3.9-3.8-7.9-3.8h-0.6c-3.5 0-7.5 1.8-11.9 5.3-2.1 2.1-3.7 4.2-4.9 6.5-0.9 1.5-1.5 4.7-1.9 9.6v0.2c-0.4 1.2-0.8 2.4-1.4 3.7-0.5 1.8-1.5 3.1-3.1 4h-1c-1.2 0-2-1.9-2.3-5.8v-1.3c0-3.4 0.6-7.9 1.7-13.7 1.4-11.8 2.3-17.6 2.8-17.6h3.5c0.5 0 1.4 0 2.5 0.1 0-0.1 0.1-0.1 0.2-0.1 0 0.1 0.6 0.2 1.8 0.3 1.2-0.2 1.8-0.6 1.8-1v-0.5c0-0.2-0.1-0.3-0.3-0.3-0.1-0.2-1.4-0.6-3.8-1-0.3 0-1.1 0.1-2.5 0.2-0.1 0-0.4-0.1-1-0.2l-0.3 0.2c-0.6-0.1-1.1-0.2-1.5-0.2h-0.5c0.4-4.4 0.8-7.7 1.1-9.7-0.1 0-0.1-0.1-0.1-0.2h0.1c0-0.1 0-0.3-0.1-0.5l0.8-7.3c0-0.3-1.4-0.5-4.3-0.6l-0.3 0.2v-0.2c-0.1 0-0.3 0.1-0.5 0.2-0.2-0.1-0.4-0.2-0.6-0.2h-3.8l-0.3 0.2c-1.1 6-1.9 11.7-2.3 17l0.2 0.3c-0.1 0-0.2 0.2-0.2 0.5-0.1 0-0.7-0.1-1.8-0.3 0 0.1-0.1 0.2-0.2 0.2 0-0.1 0-0.2-0.1-0.2h-5.3c-2.5 0-3.8 0.3-3.8 0.8v0.5l0.3 0.5 1.6-0.2h0.2c0.2 0 0.3 0.1 0.3 0.3 1-0.1 1.6-0.2 1.8-0.3l6.6 1.2c-0.7 5.6-1 8.8-1 9.6-0.5 2.7-0.8 5.6-0.8 8.9l-0.2 1c0.1 0 0.2 0.1 0.2 0.2-0.3 5.5-0.5 8.6-0.5 9.1 0 3.8 0.7 7.8 2 11.9 0.9 1.7 2.5 3 5 3.8h1.2l1-0.2c0.2 0.1 0.5 0.2 0.8 0.2h0.5c1.5-0.9 2.5-1.5 3-2 1.8-2.6 3-4.8 3.7-6.6 0.5 1.8 1.9 3.7 4 5.8 0.8 1 3.2 2 7.2 2.8 0.3 0 0.9-0.1 1.9-0.3 0.2 0.1 0.4 0.1 0.5 0.1 0.7 0 2.2-0.5 4.7-1.6 0.9-0.1 3.2-1.8 7.1-5.2 2.6-3 4.5-5.7 5.7-8.2-0.3 5.4-0.7 9.6-1 12.5v0.2c0 1.2 1.4 2 4.3 2.4l3.3-0.6c1.2 0 1.8-0.7 1.8-2.1l-0.1-0.3c1-6.7 1.5-11.6 1.7-14.5-0.1 0-0.1-0.1-0.1-0.2 0.2 0 0.3-1 0.3-3.1 0-4 0.2-6 0.7-6 0.6-1.5 2-2.3 4.1-2.3h0.4c2.1 0 3.6 1.7 4.5 5 0 2-0.2 2.9-0.5 2.9-0.2 1-0.4 1.5-0.7 1.6 0 0.2 0.1 0.3 0.3 0.3 0.2-0.2 0.4-0.3 0.6-0.3 1.3-0.4 2.6-1.5 3.7-3.2 0.7-2 1.1-3.4 1.1-4.5zm-61.5-36h1l0.8 0.2c0 1.2-0.4 1.8-1.2 1.8-0.1 0-0.3-0.6-0.6-1.8zm-0.7 7.5c0-0.6 0.1-1.5 0.2-2.8h0.2l0.2 1.2c0 0.8-0.1 1.8-0.3 3.1h-0.2v-1.5zm-1.4-4.5h0.2v5.1c-0.3-0.2-0.5-0.3-0.7-0.3zm-0.6 24.8h0.8c0 1.5-0.2 2.3-0.5 2.3 0-0.1-0.1-0.8-0.3-2.2zm-5.9 12.4c-0.3 2.2-0.5 4.3-0.5 6.4v4.4l0.2 0.9-0.3 0.1c-0.1-1.1-0.2-1.9-0.2-2.5v-2.2c0-0.2-0.1-0.5-0.2-0.6 0.1-0.2 0.2-0.4 0.2-0.6v-4.3c0-0.5 0.1-0.9 0.3-1.3l-0.2-0.3c0.2-2.1 0.3-3.4 0.5-3.8 0.5-10.6 0.9-15.9 1.3-15.9l0.7 0.2c-0.8 5.7-1.4 11.6-2 17.8 0.2 1 0.2 1.5 0.2 1.7zm1.7 17.3c0-0.3-0.2-1.1-0.5-2.3l0.2-0.3c0.2 0 0.5 0.8 0.6 2.5zm2-48.9c0.1-2.6 0.1-3.9 0.1-4h0.2l0.3 3.3zm1.6 25.6c0 2-0.2 4.6-0.6 7.8h-0.2v-1.5l0.2-1.1c-0.1 0-0.2-0.1-0.2-0.2l0.6-5.8h0.2zm0.2-33.6h-0.3v-0.7h0.5zm10 43.3h0.3c0 1.2-0.1 2.2-0.1 3h-0.7c0-0.6 0.2-1.6 0.5-3zm1.2 11.7c-0.5 0-1-1.3-1.5-3.8v-0.5l-0.2-0.3v-0.1l0.1-0.1c0.1-0.3 0.3-0.7 0.4-0.9 0.4 3.9 0.8 5.8 1.4 5.8h-0.2zm1.1 1.5c-0.2 0-0.3-0.1-0.3-0.3v-0.2c0.2 0 0.3 0.1 0.3 0.3zm15.7-24.6h0.6v0.2h-0.6zm-2.9 0.4 1.9-0.3h0.3v0.1c-0.9 0.1-1.6 0.3-2.2 0.5zm-4.8 2.7c0.5-0.6 0.8-0.9 0.9-0.9h0.3c-0.6 0.7-1 1.1-1.1 1.1h-0.1zm1.3 1c1.6-1.4 3.7-2.3 6.3-2.5h0.8c2.2 0.5 3.3 1.4 3.3 2.7 0 1.8-0.8 3.8-2.4 6-1.2 0.8-1.8 1.3-1.9 1.7-1.5 0.3-2.2 0.6-2.2 1.1h-0.5c-3.1 1-5.9 1.6-8.3 1.6l-0.8-0.2c0-3.7 1.9-7.2 5.7-10.4zm-2.7-3.5v0.1c-1.1 1.3-1.7 1.9-1.9 1.9h-0.3c0.6-0.7 1.3-1.4 2.2-2zm-3 3.1v0.3c-1.2 1.9-1.7 3.1-1.7 3.6h-0.3c0-0.7 0.7-2 2-3.9zm-0.8 16.5v0.3c-0.2 0-0.3-0.1-0.3-0.3v-0.3c0.2 0 0.3 0.1 0.3 0.3zm-1.4 4c-0.3-1.1-0.5-2.1-0.5-2.8h0.3c0.3 1.6 0.5 2.6 0.5 2.8zm0.5-6.6v-0.6h0.2l0.3 2.1c-0.3-0.1-0.4-0.6-0.5-1.5zm0.6 9.1v-0.2l0.5-0.6c0.3 0 0.8 0.5 1.6 1.4-0.2 0-0.9-0.2-2.1-0.6zm27.6-16.4c-0.7 10.1-1 16.1-1 18h-0.6v-1.4c0-0.2 0.5-5.9 1.4-17.2h0.1v0.6zm-0.2-6.8v-1.8c0-0.2 0.1-0.3 0.3-0.3h0.1l-0.3 2.1zm1.3 17-0.1 1c0.1 0.2 0.1 0.4 0.1 0.5 0 0.3 0 0.5-0.1 0.6l0.1 1v3.1c0 0.8-0.3 1.4-0.9 1.9 0.1-2.3 0.4-4.9 0.7-7.8-0.1 0-0.1-0.1-0.1-0.2s0-0.4 0.1-1h0.1v0.9zm0-14.4c0-0.6 0.1-1.7 0.3-3.2l0.3 0.2c-0.2 1.9-0.4 3-0.6 3zm2 2.7h0.1v0.6h-0.1zm-1 12.5c0.2-4.8 0.3-7.4 0.4-8h0.3c0 2-0.2 4.8-0.5 8.4h-0.1v-0.4zm1 6.9c-0.2 0-0.4 0.1-0.6 0.3h-0.3c0-0.2 0.3-0.4 0.7-0.6h0.1v0.3zm1.3-18.4c0 1.9-0.4 7.3-1.1 16.1h-0.3c0-1.5 0.2-3.5 0.5-6 0.3-7 0.6-10.6 0.9-10.6zm-1-1.3h-0.1v-0.8c0.5-5.5 0.9-8.3 1.1-8.3l0.2 0.8c-0.1 0.6-0.5 3.3-1.2 8.3zm2.1-10.4h-0.1c0-0.1-0.1-0.3-0.2-0.5v-0.1h0.7c-0.1 0.4-0.2 0.6-0.4 0.6zm1 2.4h-0.1v-0.8h0.1zm14.1 1.5h-0.1c0-0.2-0.2-0.8-0.6-1.6v-0.2c0.2 0 0.4 0.5 0.7 1.5z"/><path d="m500.3 98c-2.2-5.3-5.8-7.9-10.7-7.9h-0.3c-2.3 0-4.6 0.9-7.1 2.6-1.7 1-2.9 3.1-3.7 6.3l0.1 0.3c0 0.1 0 0.3-0.1 0.5 0.2 2.4 0.9 4.5 2.1 6.2 3.5 3.4 5.3 5.2 5.3 5.5 0.7 0 1.4 1.6 1.9 4.9 0 1.2-0.4 2.3-1.3 3.2-0.7 0.6-1.9 1.1-3.6 1.5h-1c-3.2 0-5.6-2.4-7.1-7.3 0.1-0.2 0.1-0.4 0.1-0.5s-0.1-0.9-0.3-2.4v-0.2c0-1 0.4-2.6 1.1-4.7 0-0.3-0.1-0.5-0.3-0.5 0.3-0.6 0.5-1 0.5-1.3 0-0.4-0.2-0.6-0.5-0.6-1.8 1.9-2.7 5.3-2.7 10.3 0 1.6 0.6 4 1.9 7.1 2.7 3.3 5.6 5 8.6 5h1.1l0.8 0.2c1-0.1 2.8-0.5 5.3-1.3 2-0.8 4-2.8 6-6 0.4 0 0.8-1.8 1.2-5.3 0-2.2-1.1-5-3.4-8.4l-4-4.2c-1.6-1.1-2.4-2.6-2.4-4.5v-0.2c0.8-1.6 2.1-2.4 4-2.4h0.5c2.3 0 4.4 1.2 6.2 3.6 0.7 2.1 1.1 3.1 1.3 3.1h0.2c0.2 0 0.4-0.3 0.6-0.8 0.1-0.4 0-1-0.3-1.8zm-15.1-1.6h0.3v0.8c-0.2 0-0.3-0.1-0.3-0.3zm-1.2 7.2c0.2 0 0.4 0.3 0.6 1v0.2c-0.2-0.1-0.4-0.3-0.6-0.8zm-1.6-8.5v-0.3c0-0.2 0.1-0.3 0.3-0.3v0.3c0 0.2-0.1 0.3-0.3 0.3zm4.4 14.2-4-3.9v-0.3h0.3c0 0.8 0.6 1.3 1.9 1.5 0.5 0 1.1 0.8 1.8 2.4zm7.1 9.1c0-0.2 0.1-0.3 0.3-0.3l-0.1 0.8h-0.2zm-3.4-14.1h0.3c1.5 2.1 2.3 3.4 2.3 3.9v0.2c0 0.2-0.1 0.3-0.3 0.3v-0.3c-1-1.4-1.7-2.7-2.3-3.9zm-1 8.4c-0.4-0.2-0.6-0.5-0.6-0.6h0.3c0.2 0 0.3 0.2 0.5 0.6zm0.3-9.1v0.2h-0.2c-0.2 0-0.5-0.4-1.1-1.3 0.5 0 1 0.4 1.3 1.1z"/></g></g><path stroke-width=".53534" fill="#821f81" d="m158.03 215.3c-0.58888 1.0171-1.2848 2.0343-2.0343 2.9979-1.1242 1.8202-2.4626 2.8908-3.908 3.212l-0.74947-0.37474c-0.0535 0.1606-0.10717 0.26768-0.10717 0.37474-0.10705 0-0.42826-0.32121-0.96361-0.96361l-0.21414 0.10706-0.74946-0.85654c-0.91008-2.4626-1.7666-6.2635-2.5696-11.403v-0.21414c1.8202-0.85653 3.2656-1.7666 4.2827-2.6767 0.26767 0 0.53533-0.0535 0.85655-0.1606 2.2484-2.0878 4.2827-5.4605 4.9787-8.2978 0.32119-1.2313 0.42826-2.5161 0.48179-3.8009 0-0.10716-0.0536-0.1606-0.0536-0.26766l-1.0171-2.409c-0.96361-2.2484-2.5696-3.9615-4.7645-5.1393-2.7838-1.7666-6.4776-3.3191-9.8502-3.0514h-0.74947c-3.908 0.26766-7.8695 1.8737-11.885 4.7645-2.0343 1.6596-3.3726 3.4262-4.0686 5.2999-0.58886 1.2313-0.96361 2.8373-1.2313 4.7645v1.1242c0 0.26768 0.10705 0.53536 0.37473 0.85656v1.499c0.91008 2.1949 1.7666 3.8544 2.5696 5.0322 1.2313 1.2848 2.409 2.1949 3.5868 2.6767 0-0.0535 0.0536-0.10705 0.10717-0.10705l-1.3384-1.8202c-1.4454-2.1949-2.302-4.1221-2.4626-5.8887h0.10717l-0.10717-0.58888c0-1.606 0.53533-3.3727 1.606-5.4069 0.26767-0.42828 0.58887-0.80301 0.96361-1.1777 0.0535-0.10717 0.1606-0.26767 0.21414-0.37474 0.58887-0.85655 1.5525-1.3384 2.2484-2.0343 0.16059-0.16063 0.37473-0.26768 0.58888-0.21415 1.2848-1.3384 3.1585-2.0343 5.0322-2.3555 1.1242-0.3212 2.2484-0.4818 3.3726-0.4818 1.499 0 3.1585 0.26767 4.6039 0.91006 0.96362 0.26769 1.9272 0.58888 2.8373 1.0172 0.21414 0 0.37474 0.10706 0.48181 0.26768 1.3919 0.74947 2.5161 1.8202 2.8908 3.4797 0.53535 1.606 0.32122 3.1585-0.26766 4.6575-0.0536 0.0535-0.0536 0.16059-0.10705 0.21412-0.37475 0.85655-0.91009 1.6596-1.499 2.4626-1.2313 1.5525-2.9979 3.3191-4.9787 4.0686 0 0.0535-0.0535 0.10706-0.16059 0.1606-0.42827 0.10716-2.0343 0.4818-2.2484 0.37473-0.16062-0.10717-0.10716-0.53533-0.10716-0.80301v-0.26767c0-4.6039 0.42825-9.1543 0.48179-13.758-0.32119-0.16061-0.803-0.26767-1.3919-0.37474-0.10716 0.1606-0.21412 0.21413-0.32119 0.21413-0.0536-0.26767-0.37474-0.53534-0.96362-0.74947h-0.0536c-0.74947 0.64241-1.3919 0.96361-1.9272 0.96361-0.21413 0-0.32119 0.53535-0.42827 1.5525-0.0536 0 0.0535 0.53534 0 0.53534 0.0535 0.32122-0.0536 0.21415-0.0536 0.58888v1.7131l0.16061-0.10705c0 0.58887 0.0535 1.1778 0.0535 1.8202v2.5696c0 2.7838-0.58887 6.317-1.8202 10.653l0.10705 0.26768c0.16061 0 0.48182-0.85655 0.85655-2.5696h0.10705v-0.0535c0 1.0707-0.37471 2.4626-1.0707 4.0686 0.0536 0.16059 0.0536 0.32121-0.0535 0.53534-0.4818 1.499-1.0707 3.3191-1.9808 4.7645-0.85654 1.7131-2.5161 2.8373-4.5504 2.7302-2.0878-0.10705-3.3726-1.499-3.7474-3.3191-0.0536-0.0536-0.10717-0.10717-0.16061-0.21415-0.53534-1.0707-0.37474-2.1949-0.37474-3.3726 0-0.10706 0-0.21412 0.0536-0.26767-0.0536-0.3212-0.0536-0.58887-0.0536-0.91007 0.58888-2.0878 1.1242-3.2121 1.606-3.4262l-0.10706-0.21414c-0.10716 0-0.1606 0.0536-0.1606 0.10716l-0.58888-0.10716c-1.8737 2.0878-2.8373 4.8181-2.8373 8.1907 0.26767 2.5696 0.96362 4.7645 2.0878 6.6382 1.606 1.8202 3.1585 2.6767 4.6575 2.6767 2.0878 0 4.3362-1.5525 6.7453-4.6575 1.7131-2.409 3.3191-6.2635 4.9251-11.67h0.26766c0.58888 2.9979 1.1242 4.9787 1.7131 6.0494 1.3919 4.4969 2.5161 7.0665 3.3191 7.7089 0 1.1242 1.1242 2.409 3.3191 3.8009h0.37473l0.21414-0.10716v0.10716c0.26767 0 0.53535-0.0536 0.85654-0.21414 1.8202-1.1242 3.0514-2.3555 3.6938-3.6938 1.4989-2.0878 2.5696-3.908 3.3726-5.4069zm-3.212-20.236h-0.10707v-0.42828h0.1606zm1.606-1.1242v0.26768 0.37473c-0.0535 0.0535-0.0535 0.0535-0.10706 0.0535v0.80301c-0.10716 0.74949-0.26766 1.606-0.58887 2.4626h-0.10705v-0.0536c0.37472-1.6596 0.58886-2.8373 0.58886-3.4797l-0.42828-1.499c0-0.10717 0.0536-0.21414 0.16061-0.3212 0.26767-0.0535 0.37473 0.42828 0.4818 1.3919zm-1.7666-4.1756c0.53534 0.42827 0.85655 0.85655 1.0172 1.2848 0 0.0536-0.0536 0.1606-0.10706 0.26767 0.21413 0.21412 0.3212 0.48179 0.3212 0.91006v0.10717h-0.26766c0-0.42829-0.32122-1.2848-1.0172-2.4626v-0.10716zm-0.16061 1.3919c0.16061 0 0.26768 0.26766 0.32123 0.69593v0.0536h-0.10707c-0.16062-0.0536-0.26767-0.21413-0.26767-0.4818v-0.26767zm-0.85653 1.8737-0.0535 0.53534 0.0535 0.1606c-0.10705 0.37474-0.16061 0.64241-0.16061 0.74947v0.1606c0 0.10716 0.0536 0.21414 0.10706 0.32122-0.10706 1.0707-0.21414 1.7666-0.32119 2.0878h-0.0536v-2.0343l-0.10705-0.16061c0.16059 0 0.3212-0.4818 0.42826-1.499-0.21413-0.80301-0.42826-1.3384-0.58887-1.606v-0.0535h0.16061c0.16059 0 0.37472 0.42827 0.58888 1.1777v0.16061zm-0.85655-4.8181h0.26767c0.42827 0.21413 0.69595 0.42827 0.74949 0.69593l-0.58888-0.1606h-0.0536c-0.10706 0-0.1606 0.0535-0.1606 0.1606v0.0535l0.10706 0.85655h-0.10706c-0.0536 0-0.16061-0.32121-0.3212-0.91009l0.26766-0.3212v-0.16059zm-0.32121 15.739h0.16061c-0.3212 0.42826-0.53535 0.58887-0.64241 0.58887h-0.10706c0.26766-0.37475 0.4818-0.58887 0.58886-0.58887zm-22.484-15.204c-0.21414 0.3212-0.3212 0.48182-0.48179 0.48182v-0.10706c0.21412-0.42827 0.37472-0.64241 0.48179-0.64241zm1.2313 1.3384c-0.21415 0.37474-0.48181 0.58887-0.85656 0.74946v-0.10716c0-0.0535 0.26768-0.3212 0.85656-0.74947zm6.0493-6.6382h-0.10705c0-0.21415 0.3212-0.32121 0.9636-0.37475h0.10706c0 0.21413-0.32121 0.32121-0.96362 0.37475zm5.2463 1.3919-0.26766-0.1606c-0.1606 0.10716-0.3212 0.1606-0.48182 0.1606-0.10705 0-0.21412-0.10705-0.21412-0.26768 0.21412 0 0.80301-0.0535 1.8202-0.21412l0.1606 0.21412zm-15.311 36.671c-0.74948-0.37474-1.3384-0.96361-1.8202-1.8202v-0.16059h0.21413c0 0.21414 0.58888 0.85655 1.7131 1.9808zm1.8202 2.0878h-0.37473v-0.26767h0.58887c0.0535 0.1606-0.0536 0.26767-0.21414 0.26767zm3.4797 0.4818h-0.0536c0-0.0535 0-0.1606-0.0535-0.26766v-0.10717l0.37474 0.10717c-0.10705 0.21413-0.21413 0.3212-0.26766 0.26766zm5.7281-32.656c0.21413 0 0.42827 0.96362 0.58887 2.8373-0.1606 0.3212-0.26767 0.48179-0.42826 0.48179 0-1.2313-0.10717-2.2484-0.32121-2.9979 0-0.0535 0.0536-0.1606 0.1606-0.3212zm0.69595 5.4605c0 0.0535-0.0535 0.10706-0.16062 0.10706l-0.21413 4.1756h-0.10716l0.21413-4.3898zm-1.0707-2.1949 0.16061-0.10717 0.10716 0.0535c0 0.0536-0.0536 0.10706-0.1606 0.10706v4.1757h-0.10706zm-3.1585 24.733c0.0536-0.32121 0.26766-0.85654 0.53535-1.6596l0.10717 0.10706c-0.3212 1.0707-0.53536 1.5525-0.64242 1.5525zm0.10716-1.3384-0.3212-0.0536 0.16061-0.74947c0-0.10706 0.96361-3.0514 2.8373-8.8331h0.0536l-0.0536 0.32121c-1.5525 5.2463-2.4625 8.3513-2.6767 9.3149zm4.4433-4.711c-0.0536 0.26767-0.58888 1.6596-1.606 4.1757h-0.0536l0.10705-0.42828c0.91008-2.8373 1.4454-4.2292 1.606-4.1756zm0.10716-22.645h0.37474v0.26768c-0.1606-0.10718-0.26767-0.10718-0.32121-0.16063zm0.42827 2.9979h-0.26775c0-0.1606 0-0.96362-0.10707-2.4626v-0.10716h0.37474l0.0536 1.2313zm0.32121 15.793h-0.0535l0.21414-0.91008c0-0.10706 0.10716-0.16062 0.1606-0.16062h0.0535zm1.8202-0.64241h-0.26767v-0.37475c0.16059 0 0.26767 0.0535 0.26767 0.21414zm1.3383 5.1393h-0.10716c-0.74948-2.0878-1.1242-3.4262-1.1242-4.0686v-0.21413c0.37474 0.37474 0.80302 1.7666 1.2313 4.1756zm0.74949-7.013h-0.16062c0-0.10717 0.42828-0.48181 1.3384-1.1242h0.21414c-0.48179 0.803-0.96361 1.1242-1.3919 1.1242zm1.9272 14.722c-0.26769-0.16061-0.53535-0.58888-0.74949-1.3383v-0.10718h0.10706c0 0.10718 0.21414 0.58889 0.58888 1.3384v0.10717zm0.26767-15.685h-0.16061c0.0536-0.16059 0.42827-0.48181 1.1242-0.96361h0.10706c-0.32121 0.42827-0.69595 0.80302-1.0707 0.96361zm2.0878 19.165c0-0.10706-0.0536-0.21412-0.1606-0.37472h0.26766c0 0.10706 0.0535 0.21414 0.10718 0.37472zm3.5332 0.96362c-0.16059 0-0.53534 0.10716-1.1242 0.37474h-0.37476v-0.10717l1.3384-0.37475h0.10705v0.10707z"/></svg>
